<svg xmlns="http://www.w3.org/2000/svg" viewBox="0 0 448 512"><!--!Font Awesome Free 6.7.1 by @fontawesome - https://fontawesome.com License - https://fontawesome.com/license/free Copyright 2024 Fonticons, Inc.--><path d="M448 492v20H0v-20c0-6.6 5.4-12 12-12h20V120c0-13.3 10.7-24 24-24h88V24c0-13.3 10.7-24 24-24h112c13.3 0 24 10.7 24 24v72h88c13.3 0 24 10.7 24 24v360h20c6.6 0 12 5.4 12 12zM308 192h-40c-6.6 0-12 5.4-12 12v40c0 6.6 5.4 12 12 12h40c6.6 0 12-5.4 12-12v-40c0-6.6-5.4-12-12-12zm-168 64h40c6.6 0 12-5.4 12-12v-40c0-6.6-5.4-12-12-12h-40c-6.6 0-12 5.4-12 12v40c0 6.6 5.4 12 12 12zm104 128h-40c-6.6 0-12 5.4-12 12v84h64v-84c0-6.6-5.4-12-12-12zm64-96h-40c-6.6 0-12 5.4-12 12v40c0 6.6 5.4 12 12 12h40c6.6 0 12-5.4 12-12v-40c0-6.6-5.4-12-12-12zm-116 12c0-6.6-5.4-12-12-12h-40c-6.6 0-12 5.4-12 12v40c0 6.6 5.4 12 12 12h40c6.6 0 12-5.4 12-12v-40zM182 96h26v26a6 6 0 0 0 6 6h20a6 6 0 0 0 6-6V96h26a6 6 0 0 0 6-6V70a6 6 0 0 0 -6-6h-26V38a6 6 0 0 0 -6-6h-20a6 6 0 0 0 -6 6v26h-26a6 6 0 0 0 -6 6v20a6 6 0 0 0 6 6z"/></svg>